<svg width="10" height="7" viewBox="0 0 10 7" fill="none" xmlns="http://www.w3.org/2000/svg">
<path d="M9.28104 0.219477C9.35077 0.289132 9.40609 0.371848 9.44384 0.462897C9.48158 0.553945 9.50101 0.65154 9.50101 0.750102C9.50101 0.848664 9.48158 0.946259 9.44384 1.03731C9.40609 1.12836 9.35077 1.21107 9.28104 1.28073L4.03104 6.53073C3.96139 6.60046 3.87867 6.65578 3.78762 6.69352C3.69657 6.73127 3.59898 6.75069 3.50042 6.75069C3.40186 6.75069 3.30426 6.73127 3.21321 6.69352C3.12216 6.65578 3.03945 6.60046 2.96979 6.53073L0.719791 4.28073C0.579061 4.14 0.5 3.94913 0.5 3.7501C0.5 3.55108 0.579061 3.36021 0.719791 3.21948C0.860522 3.07875 1.05139 2.99969 1.25042 2.99969C1.44944 2.99969 1.64031 3.07875 1.78104 3.21948L3.50042 4.93979L8.21979 0.219477C8.28945 0.149744 8.37216 0.0944258 8.46321 0.0566826C8.55426 0.0189394 8.65186 -0.000488281 8.75042 -0.000488281C8.84898 -0.000488281 8.94657 0.0189394 9.03762 0.0566826C9.12867 0.0944258 9.21139 0.149744 9.28104 0.219477Z" fill="white"/>
</svg>
