<svg width="40" height="40" viewBox="0 0 40 40" fill="none" xmlns="http://www.w3.org/2000/svg">
<rect width="40" height="40" rx="12" fill="white"/>
<path fill-rule="evenodd" clip-rule="evenodd" d="M19.9772 10H20.0228C25.533 10 30 14.467 30 19.9772V20.0228C30 25.533 25.533 30 20.0228 30H19.9772C14.467 30 10 25.533 10 20.0228V19.9772C10 14.467 14.467 10 19.9772 10ZM16.9043 14.069H23.0929C24.8026 14.069 26.1934 15.4599 26.1934 17.1696V22.8312C26.1934 24.5409 24.8026 25.9318 23.0929 25.9318H16.9043C15.1946 25.9318 13.8037 24.5409 13.8037 22.8312V17.1696C13.8037 15.4599 15.1946 14.069 16.9043 14.069ZM16.9043 15.1628C15.7979 15.1628 14.8975 16.0632 14.8975 17.1696V22.8312C14.8975 23.9376 15.7979 24.838 16.9043 24.838H23.0929C24.1993 24.838 25.0996 23.9376 25.0996 22.8312V17.1696C25.0996 16.0632 24.1993 15.1628 23.0929 15.1628H16.9043ZM22.8832 19.9997C22.8832 21.5903 21.589 22.8837 19.9991 22.8837C18.4086 22.8837 17.1151 21.5903 17.1151 19.9997C17.1151 18.4091 18.4086 17.1156 19.9991 17.1156C21.5897 17.1156 22.8832 18.4091 22.8832 19.9997ZM21.7894 20.0004C21.7894 19.0131 20.9864 18.2101 19.9991 18.2101C19.0119 18.2101 18.2089 19.0131 18.2089 20.0004C18.2089 20.9877 19.0119 21.7906 19.9991 21.7906C20.9864 21.7906 21.7894 20.9877 21.7894 20.0004ZM23.1507 17.5815C23.5787 17.5815 23.9275 17.2332 23.9275 16.8044C23.9275 16.3756 23.5794 16.0273 23.1507 16.0273C22.722 16.0273 22.3739 16.3756 22.3739 16.8044C22.3739 17.2332 22.722 17.5815 23.1507 17.5815Z" fill="#14A751"/>
</svg>
