<svg width="80" height="62" viewBox="0 0 80 62" fill="none" xmlns="http://www.w3.org/2000/svg">
<path d="M2.76427 50.3197C4.42675 49.7734 8.0448 49.009 9.43058 52.3855C10.0848 53.987 11.3486 58.2616 11.8106 60.8128C11.6394 62.1352 7.93693 63.6406 6.9779 60.3133C6.2135 60.2781 5.36233 60.3274 4.58619 60.3016C4.36203 60.8732 4.171 61.4572 4.01406 62.0508C1.02677 63.1435 -0.417639 61.2372 0.105254 58.4797C0.578907 56.0411 1.9858 51.8391 2.76427 50.3197ZM6.56522 56.8289C6.33074 55.8464 6.09625 54.8874 5.86177 53.9143C5.82605 53.9201 5.78963 53.9201 5.75391 53.9143C5.5335 54.8757 5.30371 55.8206 5.07392 56.8172L6.56522 56.8289Z" fill="#02775E"/>
<path d="M16.3151 62.1118C15.0654 62.1118 13.0746 61.8562 12.7205 59.4762C12.4673 57.7645 12.2961 53.5743 12.7698 50.5659C13.8859 49.5577 16.7396 49.5342 17.0678 52.5098C17.1975 54.3162 17.2304 56.1282 17.1663 57.938C18.8432 57.8476 20.5247 57.8962 22.1936 58.0834C23.1761 59.9171 21.7809 61.9922 20.0833 62.1024C18.3856 62.2126 16.3151 62.1118 16.3151 62.1118Z" fill="#02775E"/>
<path d="M23.4054 50.1017C25.4313 49.8953 30.0107 49.9446 32.1703 50.1134C32.6205 50.7582 32.9371 53.769 30.0107 53.769H27.5088V54.3997C28.2123 54.3997 30.2171 54.2661 31.2605 54.5944C31.9898 56.2099 31.4294 57.6192 29.645 57.7036C29.0259 57.727 28.6625 57.7036 27.5346 57.7036V58.4445H31.7107C32.6346 59.7436 32.318 61.8445 30.0107 62.147C29.0048 62.2807 25.8346 62.3064 24.96 62.1001C23.8181 61.807 23.3186 60.9934 23.2249 59.3426C23.1311 57.6919 23.1615 52.1534 23.4054 50.1017Z" fill="#02775E"/>
<path d="M38.9 62.4752C36.3629 62.4752 33.5069 61.9898 32.9747 58.067C32.6605 55.8581 32.8785 52.9201 33.2091 50.4065C33.7438 49.8109 37.3618 49.3724 37.6643 51.5789C37.737 52.2096 37.615 56.3388 37.8988 58.0881C38.0793 59.155 39.5401 59.3754 39.8051 58.0388C40.0959 56.5827 40.2295 52.5379 39.8778 50.7042C40.8157 49.7335 44.4056 49.3935 44.6729 52.3691C44.8324 54.0315 44.9778 54.6271 44.5885 58.0154C44.2321 61.1152 41.4254 62.4752 38.9 62.4752Z" fill="#02775E"/>
<path d="M51.0428 54.0972C50.1799 54.6319 49.9994 55.5534 50.133 56.5007C50.3277 57.9334 51.5165 58.3953 52.7546 58.2124C53.5799 58.1045 54.6304 57.4128 54.9165 57.2299C56.6282 57.5582 57.7467 60.4962 54.6492 61.9524C53.3501 62.5597 51.2257 62.4753 49.8165 62.1235C47.7062 61.5772 46.3813 60.2172 45.7858 58.1538C45.354 56.747 45.3663 55.2413 45.8209 53.8417C46.3673 52.2261 47.4858 51.1709 49.0028 50.4182C51.0311 49.4334 53.5072 49.4334 56.1194 50.9411C56.7267 53.2601 54.553 54.4865 52.9609 53.8417C52.2199 53.6588 51.6994 53.6963 51.0428 54.0972Z" fill="#02775E"/>
<path d="M68.8446 53.5274C69.4428 55.037 69.5196 56.7033 69.0626 58.2616C68.4084 60.3719 66.9875 61.7108 64.8256 62.2196C63.1239 62.6753 61.3133 62.4788 59.749 61.6686C58.2085 60.8807 57.3222 59.5817 56.9353 57.9169C56.5718 56.3505 56.668 54.5544 57.2401 53.3023C58.0045 51.5906 59.6201 49.7687 62.9591 49.7569C67.1071 49.7382 68.4811 52.566 68.8446 53.5274ZM61.4326 56.3201C61.517 57.727 62.4526 58.2264 63.074 58.1772C63.6954 58.1279 64.5067 57.6425 64.5794 56.2708C64.652 54.8991 63.8876 54.1089 63.0247 54.1089C62.1619 54.1089 61.3271 54.8686 61.4326 56.3201Z" fill="#02775E"/>
<path d="M77.7345 61.9524C76.1307 62.5972 72.3673 62.8903 70.1819 61.1036C69.0095 59.6216 70.3624 57.1338 72.3438 58.1163C74.0555 58.9674 75.657 58.9909 75.861 58.2499C75.9947 57.7646 75.6781 57.4128 74.7683 57.3519C72.801 57.2065 70.604 56.3928 70.2264 54.109C70.0693 53.089 70.482 50.6973 73.3966 49.9211C74.9981 49.4827 77.221 49.6867 78.2645 50.3901C80.3912 51.797 79.2727 53.8628 77.8776 54.1911C76.9912 53.0984 74.0157 52.6974 73.9922 53.7666C73.9922 54.034 74.1728 54.1911 74.7918 54.2755C76.5645 54.51 77.7181 55.0539 78.1566 55.3213C81.2307 57.2135 80.016 61.0192 77.7345 61.9524Z" fill="#02775E"/>
<path d="M40.4082 0C40.4082 0 26.6582 13.2763 35.9038 36.9847C35.9038 36.9847 32.743 26.3956 40.4082 16.8334C48.0031 26.3956 44.8634 36.9847 44.8634 36.9847C54.0316 13.2763 40.4082 0 40.4082 0Z" fill="#14A751"/>
<path d="M45.8828 38.3869C45.8828 38.3869 48.8279 30.8085 57.0652 28.4988C57.0652 28.4988 57.8038 36.5861 51.4752 42.1738C51.4752 42.1738 64.7679 34.3116 64.2146 18.463C64.2146 18.463 50.413 21.6707 45.8828 38.3869Z" fill="#14A751"/>
<path d="M52.8203 42.9101C52.8203 42.9101 57.2755 39.2756 63.1563 40.7317C63.1563 40.7317 60.7856 45.9677 54.9494 47.1964C54.9494 47.1964 65.8762 46.9994 71.0747 37.0527C71.063 37.048 61.4469 34.1967 52.8203 42.9101Z" fill="#14A751"/>
<path d="M44.2156 32.0559C44.2156 38.1525 40.3795 43.0906 40.3795 43.0906C40.3795 43.0906 36.541 38.1501 36.541 32.0559C36.541 25.9618 40.3795 21.0212 40.3795 21.0212C40.3795 21.0212 44.2156 25.9618 44.2156 32.0559Z" fill="#02775E"/>
<path d="M53.0545 39.4983C50.2571 43.379 45.5511 44.7671 45.5511 44.7671C45.5511 44.7671 45.3729 39.8571 48.1703 35.9764C50.9676 32.0958 55.6737 30.7076 55.6737 30.7076C55.6737 30.7076 55.8519 35.6153 53.0545 39.4983Z" fill="#02775E"/>
<path d="M56.7722 45.8739C54.0334 47.1729 50.9922 46.5023 50.9922 46.5023C50.9922 46.5023 52.3991 43.7213 55.1355 42.4223C57.8719 41.1233 60.9154 41.7939 60.9154 41.7939C60.9154 41.7939 59.5132 44.5725 56.7722 45.8739Z" fill="#02775E"/>
<path d="M34.7984 38.3869C34.7984 38.3869 31.8674 30.8085 23.684 28.4988C23.684 28.4988 22.95 36.5861 29.2459 42.1738C29.2459 42.1738 16.0211 34.3116 16.5839 18.463C16.5604 18.463 30.2917 21.6707 34.7984 38.3869Z" fill="#14A751"/>
<path d="M27.9028 42.9101C27.9028 42.9101 23.4664 39.2756 17.6184 40.7317C17.6184 40.7317 19.9796 45.9677 25.7948 47.1964C25.7948 47.1964 14.9242 46.9994 9.75391 37.0527C9.74688 37.048 19.3137 34.1967 27.9028 42.9101Z" fill="#14A751"/>
<path d="M27.6675 39.4984C30.4484 43.379 35.1357 44.7672 35.1357 44.7672C35.1357 44.7672 35.3115 39.8571 32.5283 35.9765C29.745 32.0958 25.053 30.717 25.053 30.717C25.053 30.717 24.8771 35.6154 27.6675 39.4984Z" fill="#02775E"/>
<path d="M23.962 45.8739C26.689 47.1729 29.7139 46.5023 29.7139 46.5023C29.7139 46.5023 28.307 43.7213 25.5917 42.4223C22.8764 41.1233 19.8398 41.7939 19.8398 41.7939C19.8398 41.7939 21.2374 44.5725 23.962 45.8739Z" fill="#02775E"/>
</svg>
