<svg width="24" height="24" viewBox="0 0 24 24" fill="none" xmlns="http://www.w3.org/2000/svg">
<path fill-rule="evenodd" clip-rule="evenodd" d="M21.4084 20.6276C19.9806 18.1591 17.7803 16.3891 15.2125 15.5501C17.8232 13.9959 19.0738 10.8889 18.2678 7.95945C17.4619 5.02996 14.798 3 11.7597 3C8.72132 3 6.05744 5.02996 5.25147 7.95945C4.4455 10.8889 5.6961 13.9959 8.30684 15.5501C5.73903 16.3882 3.53872 18.1582 2.1109 20.6276C1.96836 20.86 1.96318 21.1515 2.09738 21.3888C2.23159 21.6262 2.48403 21.772 2.75668 21.7696C3.02933 21.7673 3.27923 21.6172 3.40934 21.3776C5.17559 18.3251 8.29747 16.5026 11.7597 16.5026C15.2218 16.5026 18.3437 18.3251 20.11 21.3776C20.2401 21.6172 20.49 21.7673 20.7626 21.7696C21.0353 21.772 21.2877 21.6262 21.4219 21.3888C21.5561 21.1515 21.5509 20.86 21.4084 20.6276ZM6.50965 9.75255C6.50965 6.85306 8.86016 4.50255 11.7597 4.50255C14.6591 4.50255 17.0097 6.85306 17.0097 9.75255C17.0097 12.652 14.6591 15.0026 11.7597 15.0026C8.86144 14.9995 6.51275 12.6508 6.50965 9.75255Z" fill="#0D1C12"/>
</svg>
