<svg width="24" height="24" viewBox="0 0 24 24" fill="none" xmlns="http://www.w3.org/2000/svg">
<path fill-rule="evenodd" clip-rule="evenodd" d="M20 4H3.5C2.67157 4 2 4.67157 2 5.5V19C2 19.8284 2.67157 20.5 3.5 20.5H20C20.8284 20.5 21.5 19.8284 21.5 19V5.5C21.5 4.67157 20.8284 4 20 4ZM20 19H3.5V5.5H20V19ZM16.25 8.5C16.25 10.9853 14.2353 13 11.75 13C9.26472 13 7.25 10.9853 7.25 8.5C7.25 8.08579 7.58579 7.75 8 7.75C8.41421 7.75 8.75 8.08579 8.75 8.5C8.75 10.1569 10.0931 11.5 11.75 11.5C13.4069 11.5 14.75 10.1569 14.75 8.5C14.75 8.08579 15.0858 7.75 15.5 7.75C15.9142 7.75 16.25 8.08579 16.25 8.5Z" fill="#0D1C12"/>
</svg>
