<svg width="20" height="20" viewBox="0 0 20 20" fill="none" xmlns="http://www.w3.org/2000/svg">
<path fill-rule="evenodd" clip-rule="evenodd" d="M20 10C20 15.5228 15.5228 20 10 20C4.47715 20 0 15.5228 0 10C0 4.47715 4.47715 0 10 0C15.5228 0 20 4.47715 20 10ZM10.3585 7.38251C9.38588 7.78706 7.44196 8.6244 4.52675 9.8945C4.05337 10.0828 3.80539 10.2669 3.78282 10.447C3.74466 10.7513 4.12577 10.8712 4.64474 11.0343C4.71533 11.0565 4.78847 11.0795 4.86346 11.1039C5.37404 11.2699 6.06086 11.4641 6.41792 11.4718C6.7418 11.4788 7.10328 11.3452 7.50238 11.0712C10.2261 9.23257 11.6322 8.30324 11.7204 8.28321C11.7827 8.26907 11.869 8.2513 11.9275 8.30327C11.986 8.35524 11.9802 8.45367 11.974 8.48007C11.9363 8.64102 10.4403 10.0318 9.6661 10.7516C9.42476 10.9759 9.25357 11.1351 9.21857 11.1714C9.14018 11.2529 9.06028 11.3299 8.98349 11.4039C8.50915 11.8612 8.15343 12.2041 9.00319 12.7641C9.41154 13.0332 9.7383 13.2557 10.0643 13.4777C10.4203 13.7201 10.7754 13.962 11.2349 14.2631C11.3519 14.3399 11.4637 14.4196 11.5726 14.4972C11.9869 14.7926 12.3591 15.0579 12.819 15.0156C13.0862 14.991 13.3622 14.7397 13.5024 13.9904C13.8337 12.2194 14.4849 8.38211 14.6354 6.80088C14.6485 6.66234 14.632 6.48504 14.6186 6.40721C14.6053 6.32938 14.5775 6.21849 14.4763 6.1364C14.3565 6.03918 14.1715 6.01868 14.0888 6.02013C13.7127 6.02676 13.1356 6.22741 10.3585 7.38251Z" fill="#14A751"/>
</svg>
