<svg width="40" height="40" viewBox="0 0 40 40" fill="none" xmlns="http://www.w3.org/2000/svg">
<rect width="40" height="40" rx="12" fill="white"/>
<path fill-rule="evenodd" clip-rule="evenodd" d="M30 20C30 25.5228 25.5228 30 20 30C14.4772 30 10 25.5228 10 20C10 14.4772 14.4772 10 20 10C25.5228 10 30 14.4772 30 20ZM20.3585 17.3825C19.3859 17.7871 17.442 18.6244 14.5268 19.8945C14.0534 20.0828 13.8054 20.2669 13.7828 20.447C13.7447 20.7513 14.1258 20.8712 14.6447 21.0343C14.7153 21.0565 14.7885 21.0795 14.8635 21.1039C15.374 21.2699 16.0609 21.4641 16.4179 21.4718C16.7418 21.4788 17.1033 21.3452 17.5024 21.0712C20.2261 19.2326 21.6322 18.3032 21.7204 18.2832C21.7827 18.2691 21.869 18.2513 21.9275 18.3033C21.986 18.3552 21.9802 18.4537 21.974 18.4801C21.9363 18.641 20.4403 20.0318 19.6661 20.7516C19.4248 20.9759 19.2536 21.1351 19.2186 21.1714C19.1402 21.2529 19.0603 21.3299 18.9835 21.4039C18.5091 21.8612 18.1534 22.2041 19.0032 22.7641C19.4115 23.0332 19.7383 23.2557 20.0643 23.4777C20.4203 23.7201 20.7754 23.962 21.2349 24.2631C21.3519 24.3399 21.4637 24.4196 21.5726 24.4972C21.9869 24.7926 22.3591 25.0579 22.819 25.0156C23.0862 24.991 23.3622 24.7397 23.5024 23.9904C23.8337 22.2194 24.4849 18.3821 24.6354 16.8009C24.6485 16.6623 24.632 16.485 24.6186 16.4072C24.6053 16.3294 24.5775 16.2185 24.4763 16.1364C24.3565 16.0392 24.1715 16.0187 24.0888 16.0201C23.7127 16.0268 23.1356 16.2274 20.3585 17.3825Z" fill="#14A751"/>
</svg>
