<svg width="20" height="20" viewBox="0 0 20 20" fill="none" xmlns="http://www.w3.org/2000/svg">
<path fill-rule="evenodd" clip-rule="evenodd" d="M9.97723 0H10.0228C15.533 0 20 4.46696 20 9.97723V10.0228C20 15.533 15.533 20 10.0228 20H9.97723C4.46696 20 0 15.533 0 10.0228V9.97723C0 4.46696 4.46696 0 9.97723 0ZM6.90429 4.06901H13.0929C14.8026 4.06901 16.1934 5.45989 16.1934 7.1696V12.8312C16.1934 14.5409 14.8026 15.9318 13.0929 15.9318H6.90429C5.19459 15.9318 3.80371 14.5409 3.80371 12.8312V7.1696C3.80371 5.45989 5.19459 4.06901 6.90429 4.06901ZM6.90429 5.1628C5.79789 5.1628 4.8975 6.06319 4.8975 7.1696V12.8312C4.8975 13.9376 5.79789 14.838 6.90429 14.838H13.0929C14.1993 14.838 15.0996 13.9376 15.0996 12.8312V7.1696C15.0996 6.06319 14.1993 5.1628 13.0929 5.1628H6.90429ZM12.8832 9.99967C12.8832 11.5903 11.589 12.8837 9.99914 12.8837C8.40856 12.8837 7.11507 11.5903 7.11507 9.99967C7.11507 8.40908 8.40856 7.1156 9.99914 7.1156C11.5897 7.1156 12.8832 8.40908 12.8832 9.99967ZM11.7894 10.0004C11.7894 9.01309 10.9864 8.21009 9.99914 8.21009C9.01186 8.21009 8.20886 9.01309 8.20886 10.0004C8.20886 10.9877 9.01186 11.7906 9.99914 11.7906C10.9864 11.7906 11.7894 10.9877 11.7894 10.0004ZM13.1507 7.58149C13.5787 7.58149 13.9275 7.23324 13.9275 6.80442C13.9275 6.37559 13.5794 6.02734 13.1507 6.02734C12.722 6.02734 12.3739 6.37559 12.3739 6.80442C12.3739 7.23324 12.722 7.58149 13.1507 7.58149Z" fill="#14A751"/>
</svg>
