<?xml version="1.0" standalone="no"?>
<!DOCTYPE svg PUBLIC "-//W3C//DTD SVG 20010904//EN"
 "http://www.w3.org/TR/2001/REC-SVG-20010904/DTD/svg10.dtd">
<svg version="1.0" xmlns="http://www.w3.org/2000/svg"
 width="2597.000000pt" height="531.000000pt" viewBox="0 0 2597.000000 531.000000"
 preserveAspectRatio="xMidYMid meet">
<metadata>
Created by potrace 1.16, written by Peter Selinger 2001-2019
</metadata>
<g transform="translate(0.000000,531.000000) scale(0.100000,-0.100000)"
fill="#000000" stroke="none">
<path d="M2350 5299 c-512 -59 -1017 -275 -1400 -597 -115 -97 -293 -278 -380
-387 -305 -384 -506 -871 -559 -1357 -14 -125 -14 -461 0 -586 125 -1145 994
-2087 2126 -2306 70 -13 182 -30 247 -37 151 -15 513 -6 650 16 543 86 1016
315 1405 677 l82 76 -405 326 c-223 179 -410 326 -415 326 -5 0 -48 -29 -94
-64 -803 -605 -1947 -334 -2400 570 -57 115 -111 267 -139 398 -19 86 -22 132
-22 311 0 237 14 326 80 516 84 243 201 428 388 614 143 143 253 223 419 307
505 253 1121 216 1586 -96 l83 -55 418 314 c230 172 421 318 424 324 13 20
-168 171 -344 287 -352 232 -732 370 -1149 419 -137 16 -475 18 -601 4z"/>
<path d="M7665 5303 c-273 -32 -463 -77 -675 -160 -891 -349 -1515 -1141
-1665 -2113 -26 -165 -31 -495 -11 -670 71 -612 334 -1152 771 -1585 428 -424
973 -684 1563 -746 145 -15 511 -6 645 15 446 72 837 237 1184 498 126 95 344
306 446 433 572 710 736 1663 441 2555 -319 965 -1152 1648 -2153 1765 -113
13 -460 19 -546 8z m475 -973 c824 -124 1420 -832 1420 -1685 0 -725 -451
-1353 -1134 -1577 -549 -180 -1118 -70 -1564 304 -356 299 -581 790 -582 1271
0 593 309 1163 795 1465 321 199 697 277 1065 222z"/>
<path d="M13135 5290 c-424 -65 -781 -246 -1045 -528 -187 -200 -324 -463
-375 -723 -23 -116 -31 -349 -15 -446 40 -252 170 -497 369 -694 243 -241 574
-405 1338 -663 364 -123 464 -163 587 -235 92 -53 201 -151 245 -220 66 -102
97 -266 72 -381 -48 -223 -263 -404 -556 -465 -173 -36 -419 -30 -600 16 -275
70 -571 268 -818 548 l-56 64 -358 -253 c-197 -139 -364 -258 -371 -265 -12
-10 -11 -17 1 -42 33 -62 144 -202 231 -288 344 -343 814 -588 1305 -681 169
-32 476 -44 652 -24 913 100 1529 705 1566 1535 10 226 -25 402 -116 590 -128
263 -336 467 -667 653 -126 71 -457 215 -944 409 -228 91 -451 184 -495 205
-325 162 -452 348 -387 565 43 140 133 242 277 313 117 59 215 81 380 87 351
14 649 -88 882 -301 46 -43 77 -65 85 -60 13 7 734 559 752 575 12 11 -100
135 -209 232 -302 268 -683 436 -1105 487 -139 17 -487 11 -625 -10z"/>
<path d="M16760 2660 l0 -2550 470 0 470 0 2 1110 3 1109 975 -1109 975 -1109
573 -1 573 0 -18 23 c-10 13 -432 497 -938 1077 -506 579 -918 1056 -917 1059
2 3 88 40 191 82 103 41 214 90 246 109 328 185 540 433 649 761 86 256 93
524 21 827 -73 306 -197 536 -399 737 -167 167 -329 267 -548 339 -251 84
-283 86 -1380 86 l-948 0 0 -2550z m1796 1699 c255 -47 450 -230 520 -489 25
-91 25 -301 1 -389 -47 -173 -156 -307 -307 -379 -153 -72 -170 -74 -667 -79
l-443 -5 0 676 0 676 418 0 c259 0 441 -4 478 -11z"/>
<path d="M21386 5158 c4 -7 389 -585 855 -1283 l846 -1271 -833 -1242 c-459
-684 -834 -1245 -834 -1247 0 -3 240 -5 534 -5 l534 0 414 613 c228 336 479
717 559 844 79 128 147 233 150 233 3 0 271 -380 595 -845 l589 -845 588 0
c476 0 588 2 585 13 -2 7 -391 585 -865 1284 -475 700 -863 1274 -863 1276 0
3 374 561 830 1241 457 680 830 1238 830 1241 0 3 -240 5 -532 5 l-533 -1
-589 -879 c-324 -484 -592 -880 -595 -880 -3 1 -249 396 -546 880 l-540 879
-593 1 c-472 0 -592 -3 -586 -12z"/>
</g>
</svg>
